<svg xmlns="http://www.w3.org/2000/svg" width="210mm" height="297mm" viewBox="0 0 210 297"><defs><filter id="d" x="-.002" width="1.004" y="-.002" height="1.004" color-interpolation-filters="sRGB"><feGaussianBlur stdDeviation=".004"/></filter><filter id="a" x="-.002" width="1.004" y="-.002" height="1.004" color-interpolation-filters="sRGB"><feGaussianBlur stdDeviation=".004"/></filter><filter id="e" x="-.002" width="1.004" y="-.002" height="1.004" color-interpolation-filters="sRGB"><feGaussianBlur stdDeviation=".004"/></filter><filter id="b" x="-.002" width="1.004" y="-.002" height="1.004" color-interpolation-filters="sRGB"><feGaussianBlur stdDeviation=".004"/></filter><filter id="f" x="-.002" width="1.004" y="-.002" height="1.004" color-interpolation-filters="sRGB"><feGaussianBlur stdDeviation=".004"/></filter><path id="c" d="M-490.257 176.476h251.59v55.326h-251.59z"/></defs><path d="M-491.369 171.601v3.024h256.687c.12-1.007.24-2.015.333-3.024z" fill="green"/><path d="M-445.494 159.951l-1.655-.31c.02.128.947 3.666 1.076 3.772.955.792.964 2.534.745 3.73-.209 1.13-.24 3.096-.58 3.414-.428.401-.703 1.783-.703 1.783l1.283.397s.449-2.191.993-2.974c.42-.607.14-1.45.206-2.53.068-1.092-.012-2.457-.703-3.435-.407-.575-.662-3.847-.662-3.847z" fill="green" stroke="#387e4b" stroke-width=".043"/><g transform="matrix(.16684 -.49354 .57251 .19353 -453.134 -108.068)" fill="#d4aa00"><circle stroke="#8a5700" stroke-width=".1" filter="url(#a)"/><path d="M-482.08 154.347s.884 1.137 1.101 1.877c.315 1.075.319 2.305.21 3.447-.086.9-.427 2.038-.672 2.567-.244.53-.529.73-.529.73s-.435-.325-.546-.605c-.315-.79-.17-1.775-.2-2.667-.038-1.205-.162-2.443.037-3.617.106-.621.6-1.732.6-1.732zM-480.02 152.29s1.148-.87 1.89-1.077c1.08-.3 2.31-.29 3.45-.165.9.097 2.032.453 2.558.704.527.25.724.538.724.538s-.332.43-.612.538c-.794.305-1.778.149-2.67.166-1.206.024-2.445.131-3.616-.083-.62-.113-1.724-.62-1.724-.62zM-480.493 153.753s1.333-.546 2.104-.556c1.12-.014 2.306.313 3.376.725.845.325 1.848.96 2.293 1.337.444.377.56.706.56.706s-.43.33-.729.363c-.845.09-1.756-.313-2.623-.525-1.171-.286-2.396-.5-3.473-1.007-.57-.269-1.508-1.043-1.508-1.043z" stroke="#000" stroke-width=".047"/><path d="M-481.103 154.05s1.418.248 2.077.65c.955.585 1.784 1.494 2.47 2.412.542.726 1.054 1.797 1.228 2.353.175.556.099.896.099.896s-.54.051-.811-.08c-.764-.375-1.32-1.2-1.94-1.842-.839-.867-1.762-1.7-2.403-2.704-.34-.53-.72-1.685-.72-1.685zM-483.78 152.64s-1.03 1.004-1.742 1.302c-1.033.433-2.255.574-3.402.592-.905.015-2.073-.197-2.626-.38-.553-.184-.784-.445-.784-.445s.275-.469.54-.61c.75-.401 1.745-.368 2.629-.496 1.193-.173 2.41-.433 3.598-.366.63.035 1.788.402 1.788.402z" stroke="#000" stroke-width=".047"/><path d="M-490.505 158.574s.443-1.37.934-1.966c.711-.864 1.727-1.56 2.732-2.11.793-.436 1.925-.793 2.5-.889.576-.095.902.027.902.027s-.025.543-.193.792c-.477.705-1.373 1.14-2.094 1.665-.975.71-1.93 1.508-3.012 2.003-.573.262-1.77.478-1.77.478zM-480.152 151.554s-.024-1.44.247-2.162c.393-1.049 1.128-2.035 1.901-2.883.61-.669 1.565-1.373 2.078-1.65.513-.277.861-.266.861-.266s.153.521.074.811c-.222.82-.929 1.523-1.441 2.254-.693.987-1.337 2.05-2.2 2.87-.458.434-1.52 1.026-1.52 1.026zM-481.72 150.42s-.904-1.122-1.134-1.859c-.333-1.069-.359-2.299-.27-3.442.07-.902.391-2.045.626-2.579.235-.533.516-.739.516-.739s.44.318.557.596c.329.784.202 1.771.247 2.663.06 1.204.205 2.44.026 3.617-.094.623-.568 1.742-.568 1.742zM-483.73 151.427s-1.427.193-2.176.008c-1.087-.268-2.153-.883-3.085-1.551-.735-.527-1.547-1.394-1.882-1.87-.335-.478-.365-.825-.365-.825s.5-.212.797-.168c.841.125 1.62.744 2.407 1.168 1.061.572 2.193 1.087 3.108 1.85.484.403 1.196 1.388 1.196 1.388zM-482.775 150.615s-1.398-.347-2.026-.795c-.913-.65-1.677-1.614-2.297-2.578-.49-.762-.924-1.866-1.06-2.433-.136-.567-.036-.9-.036-.9s.543-.014.804.137c.735.426 1.232 1.289 1.806 1.972.776.923 1.639 1.82 2.208 2.865.302.554.6 1.732.6 1.732z" stroke="#000" stroke-width=".047"/></g><g stroke="#007400"><path d="M-429.485 153.921c-.017.151 2.962.97 4.763 1.125 2.851.245 3.636 1.506 5.159 2.712 1.555 1.231 2.538 2.676 2.58 4.365.061 2.512 1.389 7.078 1.389 7.078s-2.279-.423-4.234-.53c-5.405-.293-4.952-1.078-6.548-2.843-1.563-1.73-2.644-3.668-2.315-5.689.33-2.02-.794-6.218-.794-6.218z" fill="green" stroke-width=".065" transform="scale(1.26707 1.16171) rotate(6.42 -126.845 1331.92)"/><path d="M-426.713 157.187c.52.374 1.02.765 1.51 1.158a51.773 51.773 0 011.835 1.544c.523.461 1.016.928 1.507 1.395a28.04 28.04 0 012.461 2.666c.301.363.578.722.862 1.083.227.286.437.57.626.848.195.276.34.538.47.795.139.33.248.648.359.967.09.263.144.51.258.783.104.261.3.553.48.838.185.3.395.605.613.912.28.378.58.76.896 1.144.195.245.421.492.66.74.11.13.243.262.37.394l.305.313c.683.732-.393.215 1.67-.042l-.928-.38v0c.89 1.556.805 1.253.427.827-.104-.103-.196-.206-.304-.309-.122-.133-.27-.266-.38-.4a10.63 10.63 0 01-.672-.733c-.32-.382-.622-.76-.887-1.133-.214-.305-.432-.61-.611-.907-.177-.28-.366-.565-.47-.822-.114-.272-.174-.52-.264-.782-.117-.324-.231-.646-.363-.976a4.863 4.863 0 00-.468-.805c-.189-.282-.401-.568-.636-.859-.286-.362-.567-.724-.874-1.09a28.108 28.108 0 00-2.47-2.685 65.26 65.26 0 00-1.519-1.405 56.255 56.255 0 00-1.839-1.552c-.48-.39-.974-.775-1.474-1.155l-1.15-.372z" fill="#006900" stroke-width=".059" transform="scale(1.26707 1.16171) rotate(6.42 -126.845 1331.92)"/><path d="M-429.485 153.921c-.017.151 2.962.97 4.763 1.125 2.851.245 3.636 1.506 5.159 2.712 1.555 1.231 2.538 2.676 2.58 4.365.061 2.512 1.389 7.078 1.389 7.078s-2.279-.423-4.234-.53c-5.405-.293-4.952-1.078-6.548-2.843-1.563-1.73-2.644-3.668-2.315-5.689.33-2.02-.794-6.218-.794-6.218z" fill="green" stroke-width=".065" transform="matrix(-.7046 0 0 1.30383 -647.532 -53.315)"/><path d="M-426.713 157.187c.52.374 1.02.765 1.51 1.158a51.773 51.773 0 011.835 1.544c.523.461 1.016.928 1.507 1.395a28.04 28.04 0 012.461 2.666c.301.363.578.722.862 1.083.227.286.437.57.626.848.195.276.34.538.47.795.139.33.248.648.359.967.09.263.144.51.258.783.104.261.3.553.48.838.185.3.395.605.613.912.28.378.58.76.896 1.144.195.245.421.492.66.74.11.13.243.262.37.394l.305.313c.683.732-.393.215 1.67-.042l-.928-.38v0c.89 1.556.805 1.253.427.827-.104-.103-.196-.206-.304-.309-.122-.133-.27-.266-.38-.4a10.63 10.63 0 01-.672-.733c-.32-.382-.622-.76-.887-1.133-.214-.305-.432-.61-.611-.907-.177-.28-.366-.565-.47-.822-.114-.272-.174-.52-.264-.782-.117-.324-.231-.646-.363-.976a4.863 4.863 0 00-.468-.805c-.189-.282-.401-.568-.636-.859-.286-.362-.567-.724-.874-1.09a28.108 28.108 0 00-2.47-2.685 65.26 65.26 0 00-1.519-1.405 56.255 56.255 0 00-1.839-1.552c-.48-.39-.974-.775-1.474-1.155l-1.15-.372z" fill="#006900" stroke-width=".059" transform="matrix(-.7046 0 0 1.30383 -647.532 -53.315)"/><g><path d="M-429.485 153.921c-.017.151 2.962.97 4.763 1.125 2.851.245 3.636 1.506 5.159 2.712 1.555 1.231 2.538 2.676 2.58 4.365.061 2.512 1.389 7.078 1.389 7.078s-2.279-.423-4.234-.53c-5.405-.293-4.952-1.078-6.548-2.843-1.563-1.73-2.644-3.668-2.315-5.689.33-2.02-.794-6.218-.794-6.218z" fill="green" stroke-width=".065" transform="matrix(-.86985 .41839 .77974 1.08096 -850.791 157.826)"/><path d="M-426.713 157.187c.52.374 1.02.765 1.51 1.158a51.773 51.773 0 011.835 1.544c.523.461 1.016.928 1.507 1.395a28.04 28.04 0 012.461 2.666c.301.363.578.722.862 1.083.227.286.437.57.626.848.195.276.34.538.47.795.139.33.248.648.359.967.09.263.144.51.258.783.104.261.3.553.48.838.185.3.395.605.613.912.28.378.58.76.896 1.144.195.245.421.492.66.74.11.13.243.262.37.394l.305.313c.683.732-.393.215 1.67-.042l-.928-.38v0c.89 1.556.805 1.253.427.827-.104-.103-.196-.206-.304-.309-.122-.133-.27-.266-.38-.4a10.63 10.63 0 01-.672-.733c-.32-.382-.622-.76-.887-1.133-.214-.305-.432-.61-.611-.907-.177-.28-.366-.565-.47-.822-.114-.272-.174-.52-.264-.782-.117-.324-.231-.646-.363-.976a4.863 4.863 0 00-.468-.805c-.189-.282-.401-.568-.636-.859-.286-.362-.567-.724-.874-1.09a28.108 28.108 0 00-2.47-2.685 65.26 65.26 0 00-1.519-1.405 56.255 56.255 0 00-1.839-1.552c-.48-.39-.974-.775-1.474-1.155l-1.15-.372z" fill="#006900" stroke-width=".059" transform="matrix(-.86985 .41839 .77974 1.08096 -850.791 157.826)"/></g></g><path d="M-382.836 159.132l-1.655-.31c.02.128.947 3.665 1.076 3.772.955.792.965 2.533.745 3.729-.208 1.13-.24 3.097-.58 3.415-.427.401-.703 1.783-.703 1.783l1.283.396s.45-2.19.993-2.973c.421-.607.14-1.45.207-2.53.067-1.092-.012-2.457-.704-3.435-.407-.576-.662-3.847-.662-3.847z" fill="green" stroke="#387e4b" stroke-width=".043" transform="matrix(-1.77732 0 0 .7942 -1062.663 35.379)"/><g transform="matrix(-.29652 -.39197 -1.01754 .1537 -368.662 -51.1)" fill="#d4aa00"><circle stroke="#8a5700" stroke-width=".1" filter="url(#b)"/><path d="M-482.08 154.347s.884 1.137 1.101 1.877c.315 1.075.319 2.305.21 3.447-.086.9-.427 2.038-.672 2.567-.244.53-.529.73-.529.73s-.435-.325-.546-.605c-.315-.79-.17-1.775-.2-2.667-.038-1.205-.162-2.443.037-3.617.106-.621.6-1.732.6-1.732zM-480.02 152.29s1.148-.87 1.89-1.077c1.08-.3 2.31-.29 3.45-.165.9.097 2.032.453 2.558.704.527.25.724.538.724.538s-.332.43-.612.538c-.794.305-1.778.149-2.67.166-1.206.024-2.445.131-3.616-.083-.62-.113-1.724-.62-1.724-.62zM-480.493 153.753s1.333-.546 2.104-.556c1.12-.014 2.306.313 3.376.725.845.325 1.848.96 2.293 1.337.444.377.56.706.56.706s-.43.33-.729.363c-.845.09-1.756-.313-2.623-.525-1.171-.286-2.396-.5-3.473-1.007-.57-.269-1.508-1.043-1.508-1.043z" stroke="#000" stroke-width=".047"/><path d="M-481.103 154.05s1.418.248 2.077.65c.955.585 1.784 1.494 2.47 2.412.542.726 1.054 1.797 1.228 2.353.175.556.099.896.099.896s-.54.051-.811-.08c-.764-.375-1.32-1.2-1.94-1.842-.839-.867-1.762-1.7-2.403-2.704-.34-.53-.72-1.685-.72-1.685zM-483.78 152.64s-1.03 1.004-1.742 1.302c-1.033.433-2.255.574-3.402.592-.905.015-2.073-.197-2.626-.38-.553-.184-.784-.445-.784-.445s.275-.469.54-.61c.75-.401 1.745-.368 2.629-.496 1.193-.173 2.41-.433 3.598-.366.63.035 1.788.402 1.788.402z" stroke="#000" stroke-width=".047"/><path d="M-490.505 158.574s.443-1.37.934-1.966c.711-.864 1.727-1.56 2.732-2.11.793-.436 1.925-.793 2.5-.889.576-.095.902.027.902.027s-.025.543-.193.792c-.477.705-1.373 1.14-2.094 1.665-.975.71-1.93 1.508-3.012 2.003-.573.262-1.77.478-1.77.478zM-480.152 151.554s-.024-1.44.247-2.162c.393-1.049 1.128-2.035 1.901-2.883.61-.669 1.565-1.373 2.078-1.65.513-.277.861-.266.861-.266s.153.521.074.811c-.222.82-.929 1.523-1.441 2.254-.693.987-1.337 2.05-2.2 2.87-.458.434-1.52 1.026-1.52 1.026zM-481.72 150.42s-.904-1.122-1.134-1.859c-.333-1.069-.359-2.299-.27-3.442.07-.902.391-2.045.626-2.579.235-.533.516-.739.516-.739s.44.318.557.596c.329.784.202 1.771.247 2.663.06 1.204.205 2.44.026 3.617-.094.623-.568 1.742-.568 1.742zM-483.73 151.427s-1.427.193-2.176.008c-1.087-.268-2.153-.883-3.085-1.551-.735-.527-1.547-1.394-1.882-1.87-.335-.478-.365-.825-.365-.825s.5-.212.797-.168c.841.125 1.62.744 2.407 1.168 1.061.572 2.193 1.087 3.108 1.85.484.403 1.196 1.388 1.196 1.388zM-482.775 150.615s-1.398-.347-2.026-.795c-.913-.65-1.677-1.614-2.297-2.578-.49-.762-.924-1.866-1.06-2.433-.136-.567-.036-.9-.036-.9s.543-.014.804.137c.735.426 1.232 1.289 1.806 1.972.776.923 1.639 1.82 2.208 2.865.302.554.6 1.732.6 1.732z" stroke="#000" stroke-width=".047"/></g><g stroke="#007400"><path d="M-427.804 151.404c-.034.148 2.834 1.295 4.607 1.65 2.806.562 3.445 1.903 4.824 3.272 1.407 1.397 2.223 2.942 2.075 4.626-.22 2.503.589 7.189.589 7.189s-2.217-.675-4.148-1c-5.338-.896-4.8-1.625-6.189-3.558-1.36-1.893-2.218-3.94-1.665-5.912.554-1.971-.093-6.267-.093-6.267z" fill="green" stroke-width=".065"/><path d="M-425.415 154.958c.476.43.929.875 1.372 1.32.573.574 1.12 1.156 1.65 1.74.468.517.906 1.036 1.342 1.554a28.04 28.04 0 012.148 2.925c.258.394.493.783.734 1.173.194.31.371.614.528.913.163.296.279.572.377.841.102.344.175.673.25 1.002.06.271.086.523.169.807.074.271.236.583.382.886.151.318.326.646.508.975.236.407.492.82.762 1.238.167.264.364.535.573.808.096.143.213.288.323.433l.27.346c.597.804-.415.169 1.663.144l-.879-.481h0c.71 1.646.66 1.335.332.87-.092-.114-.172-.227-.268-.341-.106-.146-.24-.295-.332-.44-.21-.27-.419-.54-.586-.804a18.129 18.129 0 01-.755-1.225c-.178-.327-.361-.655-.506-.97-.144-.298-.301-.602-.374-.87-.084-.282-.116-.536-.176-.805-.08-.335-.158-.669-.252-1.01a4.863 4.863 0 00-.374-.853c-.157-.301-.336-.61-.536-.925-.245-.392-.483-.783-.747-1.18a28.108 28.108 0 00-2.154-2.945 65.26 65.26 0 00-1.353-1.567 56.255 56.255 0 00-1.654-1.747 61.628 61.628 0 00-1.335-1.313l-1.101-.499z" fill="#006900" stroke-width=".059"/><path d="M-429.485 153.921c-.017.151 2.962.97 4.763 1.125 2.851.245 3.636 1.506 5.159 2.712 1.555 1.231 2.538 2.676 2.58 4.365.061 2.512 1.389 7.078 1.389 7.078s-2.279-.423-4.234-.53c-5.405-.293-4.952-1.078-6.548-2.843-1.563-1.73-2.644-3.668-2.315-5.689.33-2.02-.794-6.218-.794-6.218z" fill="green" stroke-width=".065" transform="matrix(-.55608 0 0 1.12233 -642.976 -21.96)"/><path d="M-426.713 157.187c.52.374 1.02.765 1.51 1.158a51.773 51.773 0 011.835 1.544c.523.461 1.016.928 1.507 1.395a28.04 28.04 0 012.461 2.666c.301.363.578.722.862 1.083.227.286.437.57.626.848.195.276.34.538.47.795.139.33.248.648.359.967.09.263.144.51.258.783.104.261.3.553.48.838.185.3.395.605.613.912.28.378.58.76.896 1.144.195.245.421.492.66.74.11.13.243.262.37.394l.305.313c.683.732-.393.215 1.67-.042l-.928-.38v0c.89 1.556.805 1.253.427.827-.104-.103-.196-.206-.304-.309-.122-.133-.27-.266-.38-.4a10.63 10.63 0 01-.672-.733c-.32-.382-.622-.76-.887-1.133-.214-.305-.432-.61-.611-.907-.177-.28-.366-.565-.47-.822-.114-.272-.174-.52-.264-.782-.117-.324-.231-.646-.363-.976a4.863 4.863 0 00-.468-.805c-.189-.282-.401-.568-.636-.859-.286-.362-.567-.724-.874-1.09a28.108 28.108 0 00-2.47-2.685 65.26 65.26 0 00-1.519-1.405 56.255 56.255 0 00-1.839-1.552c-.48-.39-.974-.775-1.474-1.155l-1.15-.372z" fill="#006900" stroke-width=".059" transform="matrix(-.55608 0 0 1.12233 -642.976 -21.96)"/><path d="M-429.485 153.921c-.017.151 2.962.97 4.763 1.125 2.851.245 3.636 1.506 5.159 2.712 1.555 1.231 2.538 2.676 2.58 4.365.061 2.512 1.389 7.078 1.389 7.078s-2.279-.423-4.234-.53c-5.405-.293-4.952-1.078-6.548-2.843-1.563-1.73-2.644-3.668-2.315-5.689.33-2.02-.794-6.218-.794-6.218z" fill="green" stroke-width=".065" transform="matrix(-.6865 .36015 .61539 .9305 -803.393 159.79)"/><path d="M-426.713 157.187c.52.374 1.02.765 1.51 1.158a51.773 51.773 0 011.835 1.544c.523.461 1.016.928 1.507 1.395a28.04 28.04 0 012.461 2.666c.301.363.578.722.862 1.083.227.286.437.57.626.848.195.276.34.538.47.795.139.33.248.648.359.967.09.263.144.51.258.783.104.261.3.553.48.838.185.3.395.605.613.912.28.378.58.76.896 1.144.195.245.421.492.66.74.11.13.243.262.37.394l.305.313c.683.732-.393.215 1.67-.042l-.928-.38v0c.89 1.556.805 1.253.427.827-.104-.103-.196-.206-.304-.309-.122-.133-.27-.266-.38-.4a10.63 10.63 0 01-.672-.733c-.32-.382-.622-.76-.887-1.133-.214-.305-.432-.61-.611-.907-.177-.28-.366-.565-.47-.822-.114-.272-.174-.52-.264-.782-.117-.324-.231-.646-.363-.976a4.863 4.863 0 00-.468-.805c-.189-.282-.401-.568-.636-.859-.286-.362-.567-.724-.874-1.09a28.108 28.108 0 00-2.47-2.685 65.26 65.26 0 00-1.519-1.405 56.255 56.255 0 00-1.839-1.552c-.48-.39-.974-.775-1.474-1.155l-1.15-.372z" fill="#006900" stroke-width=".059" transform="matrix(-.6865 .36015 .61539 .9305 -803.393 159.79)"/><g><path d="M-259.388 147.272c-.092.121 2.047 2.35 3.515 3.404 2.324 1.67 2.352 3.156 3.043 4.972.706 1.854.81 3.598-.02 5.07-1.232 2.19-2.43 6.791-2.43 6.791s-1.74-1.53-3.365-2.622c-4.493-3.02-3.702-3.463-4.169-5.796-.457-2.285-.393-4.505.924-6.072 1.318-1.567 2.502-5.747 2.502-5.747z" fill="green" stroke-width=".065"/><path d="M-258.679 151.496c.256.588.485 1.18.705 1.768.285.76.542 1.515.785 2.266.213.664.397 1.317.58 1.97a28.04 28.04 0 01.75 3.55c.071.466.125.917.184 1.372.049.362.084.712.104 1.049a5.95 5.95 0 01-.004.922c-.05.355-.118.685-.186 1.016-.058.271-.138.512-.18.804-.044.278-.025.628-.016.965.005.353.03.723.06 1.098.046.468.109.95.183 1.442.042.31.11.638.188.972.028.17.074.35.116.528l.102.426c.212.979-.447-.017 1.456.818l-.602-.8h0c-.033 1.792.05 1.488-.057.929-.037-.142-.063-.278-.103-.421-.037-.177-.096-.368-.121-.538a10.63 10.63 0 01-.202-.975c-.08-.49-.145-.971-.182-1.426-.028-.372-.059-.746-.06-1.093-.01-.33-.026-.673.017-.946.04-.292.116-.537.173-.807.065-.338.132-.674.188-1.024.026-.286.042-.582.01-.931a12.228 12.228 0 00-.106-1.064c-.06-.458-.116-.912-.193-1.384a28.108 28.108 0 00-.746-3.571 65.26 65.26 0 00-.586-1.985c-.245-.754-.5-1.511-.785-2.275a61.628 61.628 0 00-.674-1.746l-.798-.909z" fill="#006900" stroke-width=".059"/></g><g><path d="M-429.485 153.921c-.017.151 2.962.97 4.763 1.125 2.851.245 3.636 1.506 5.159 2.712 1.555 1.231 2.538 2.676 2.58 4.365.061 2.512 1.389 7.078 1.389 7.078s-2.279-.423-4.234-.53c-5.405-.293-4.952-1.078-6.548-2.843-1.563-1.73-2.644-3.668-2.315-5.689.33-2.02-.794-6.218-.794-6.218z" fill="green" stroke-width=".065" transform="matrix(-.55412 -.04665 -.09416 1.11838 -467.142 -40.407)"/><path d="M-426.713 157.187c.52.374 1.02.765 1.51 1.158a51.773 51.773 0 011.835 1.544c.523.461 1.016.928 1.507 1.395a28.04 28.04 0 012.461 2.666c.301.363.578.722.862 1.083.227.286.437.57.626.848.195.276.34.538.47.795.139.33.248.648.359.967.09.263.144.51.258.783.104.261.3.553.48.838.185.3.395.605.613.912.28.378.58.76.896 1.144.195.245.421.492.66.74.11.13.243.262.37.394l.305.313c.683.732-.393.215 1.67-.042l-.928-.38v0c.89 1.556.805 1.253.427.827-.104-.103-.196-.206-.304-.309-.122-.133-.27-.266-.38-.4a10.63 10.63 0 01-.672-.733c-.32-.382-.622-.76-.887-1.133-.214-.305-.432-.61-.611-.907-.177-.28-.366-.565-.47-.822-.114-.272-.174-.52-.264-.782-.117-.324-.231-.646-.363-.976a4.863 4.863 0 00-.468-.805c-.189-.282-.401-.568-.636-.859-.286-.362-.567-.724-.874-1.09a28.108 28.108 0 00-2.47-2.685 65.26 65.26 0 00-1.519-1.405 56.255 56.255 0 00-1.839-1.552c-.48-.39-.974-.775-1.474-1.155l-1.15-.372z" fill="#006900" stroke-width=".059" transform="matrix(-.55412 -.04665 -.09416 1.11838 -467.142 -40.407)"/></g></g><text style="line-height:1.25" x="-474.911" y="214.033" font-weight="400" font-size="10.583" font-family="sans-serif" stroke-width=".265"><tspan x="-474.911" y="214.033" style="-inkscape-font-specification:'Segoe Script'" font-size="50.8" font-family="Segoe Script">Alyssa&apos;s </tspan><tspan x="-474.911" y="277.533" style="-inkscape-font-specification:'Segoe Script'" font-size="50.8" font-family="Segoe Script">Garden</tspan></text><g stroke="#387e4b"><path d="M-460.903 153.948l1.65.198c-.02.172-.944 4.798-1.072 4.9-.952.748-.962 3.197-.743 4.964.208 1.673.24 4.453.578 5.031.426.73.7 2.78.7 2.78l-1.278.067s-.447-3.257-.99-4.568c-.419-1.015-.139-2.095-.206-3.64-.067-1.565.012-3.457.702-4.569.405-.654.66-5.163.66-5.163z" fill="green" stroke-width=".051"/><circle fill="#4848dc" stroke-width=".065"/><circle transform="rotate(14.877)" fill="#4848dc" stroke-width=".065"/><circle fill="#4e4e6f" stroke-width=".065"/><circle fill="#4e4e6f" stroke-width=".065"/><circle transform="rotate(-10.64)" fill="#4848dc" stroke-width=".065"/><circle transform="rotate(-15.464)" fill="#9595bf" stroke-width=".065"/><circle transform="rotate(13.373)" fill="#b1b1e2" stroke-width=".065"/><path d="M-336.37 149.127l3.622.255c-.043.22-2.073 6.165-2.355 6.295-2.09.963-2.112 4.11-1.63 6.38.455 2.15.525 5.723 1.268 6.466.937.936 1.54 3.573 1.54 3.573l-2.808.085s-.984-4.185-2.174-5.87c-.922-1.305-.307-2.692-.453-4.679-.148-2.01.026-4.441 1.54-5.87.891-.841 1.45-6.635 1.45-6.635z" fill="green" stroke-width=".086"/><circle fill="#f60" stroke-width=".109"/><circle transform="matrix(.98814 .15356 -.41345 .91053 0 0)" fill="#ff7f2a" stroke-width=".111"/><circle fill="#d45500" stroke-width=".109"/><circle fill="#d45500" stroke-width=".109"/><circle transform="matrix(.99401 -.10925 .30575 .95211 0 0)" fill="#ff7f2a" stroke-width=".11"/><circle transform="matrix(.98715 -.15977 .4275 .90402 0 0)" fill="#ffb380" stroke-width=".111"/><circle transform="matrix(.99047 .13776 -.37648 .92643 0 0)" fill="#ffb380" stroke-width=".111"/><g transform="translate(137.945 1.018)"><path d="M-460.903 153.948l1.65.198c-.02.172-.944 4.798-1.072 4.9-.952.748-.962 3.197-.743 4.964.208 1.673.24 4.453.578 5.031.426.73.7 2.78.7 2.78l-1.278.067s-.447-3.257-.99-4.568c-.419-1.015-.139-2.095-.206-3.64-.067-1.565.012-3.457.702-4.569.405-.654.66-5.163.66-5.163z" fill="green" stroke-width=".051"/><circle fill="#4848dc" stroke-width=".065"/><circle transform="rotate(14.877)" fill="#4848dc" stroke-width=".065"/><circle fill="#4e4e6f" stroke-width=".065"/><circle fill="#4e4e6f" stroke-width=".065"/><circle transform="rotate(-10.64)" fill="#4848dc" stroke-width=".065"/><circle transform="rotate(-15.464)" fill="#9595bf" stroke-width=".065"/><circle transform="rotate(13.373)" fill="#b1b1e2" stroke-width=".065"/></g></g><g><path d="M-273.058 149.84l-2.423.255c.028.22 1.386 6.17 1.575 6.3 1.398.963 1.412 4.111 1.09 6.385-.304 2.15-.35 5.726-.848 6.47-.626.937-1.03 3.575-1.03 3.575l1.878.085s.658-4.188 1.454-5.874c.617-1.306.205-2.694.303-4.682.099-2.012-.018-4.445-1.03-5.874-.596-.842-.969-6.64-.969-6.64z" fill="green" stroke="#387e4b" stroke-width=".071"/><path d="M-281.16 138.352c.801 9.284 4.423 11.184 4.423 11.184l3.47 2.15 2.12-.863 1.396-3.209.67-4.388-1.423-4.493z" fill="maroon" stroke="#000" stroke-width=".243"/><path d="M-280.259 136.668l-3.367.468-5.145 4.77-1.965 5.8 4.116-1.403 5.052-3.274 4.677-3.648-2.62-2.62z" fill="#d40000" stroke="#000" stroke-width=".265"/><path d="M-276.891 139.1l1.777-1.777 2.994-1.122 3.554 1.59 1.403 1.216 1.123 7.296-5.239 5.987s-4.022-4.49-4.022-5.145c0-.655-1.59-8.045-1.59-8.045z" fill="#f55" stroke="#000" stroke-width=".265"/><path d="M-279.23 136.481l-2.338-3.648-2.713-6.08 2.619-4.397 3.087 1.777 3.368 4.303 1.31 5.8z" fill="maroon" stroke="#000" stroke-width=".265"/><path d="M-274.178 134.236l3.554-.748s6.08 1.684 6.08 2.058c0 .374 4.678 7.577 4.678 7.577l-3.087 1.684-4.116-5.894-5.051-2.993z" fill="#d40000" stroke="#000" stroke-width=".265"/><path d="M-278.126 137.842c-.614-.616-1.098-1.135-1.075-1.155.066-.055 4.998-2.122 5.064-2.122.09 0 1.717 1.344 1.747 1.443.014.047-.61.324-1.388.614l-1.414.527-.909.906-.91.906z" fill="#ff0" stroke="#007400" stroke-width=".023018459999999998"/><circle fill="#ff0" stroke="#007400" stroke-width=".065"/><circle fill="#ff0" stroke="#007400" stroke-width=".065"/><circle fill="#ff0" stroke="#007400" stroke-width=".065"/><path d="M-278.045 131.098c.039.361.093.72.175 1.074.056.286.148.561.224.842.068.213.169.411.242.622.065.178.149.345.197.528.054.162.124.316.175.479.083.212.185.414.264.628.071.201.165.393.265.581.081.144.194.279.322.385.105.087.207.174.312.26.465.368 1.145-.946.635-1.256l-.696 1.202c.485.361.28-1.466.785-1.142l-.014-.004c-.103-.086-.212-.164-.311-.255a1.233 1.233 0 01-.28-.354 4.699 4.699 0 01-.254-.568c-.082-.211-.186-.413-.255-.628-.053-.162-.127-.315-.17-.48-.058-.18-.15-.347-.207-.527-.076-.207-.178-.402-.234-.616-.078-.275-.173-.546-.226-.828a7.754 7.754 0 01-.154-1.08l-.796 1.137zM-275.741 129.941c.002.3 0 .597.015.895.01.273.043.537.084.794.051.276.104.55.165.816.08.334.162.666.25.991.094.353.184.712.269 1.076.057.248.125.482.189.72.04.131.083.258.114.401l.535-.689a3.914 3.914 0 00-.12-.41c-.064-.234-.132-.465-.19-.707a56.196 56.196 0 00-.274-1.08 36.162 36.162 0 01-.244-.988c-.06-.26-.109-.53-.159-.8a6.674 6.674 0 01-.078-.765 14.259 14.259 0 01-.008-.887l-.548.633z" fill="#ff0"/><circle cx="-274.646" cy="128.717" r=".003" fill="#ff0" stroke="#007400" stroke-width=".265"/><path d="M-279.699 131.713c.166.176.331.346.491.54.148.173.283.376.41.586.136.238.269.477.394.725.156.316.31.633.459.955.161.348.328.694.5 1.035.116.23.222.47.33.706.058.137.113.276.181.406l-.578.425a4.515 4.515 0 01-.184-.42c-.107-.234-.21-.471-.323-.702a58.77 58.77 0 01-.5-1.042 37.44 37.44 0 00-.46-.945c-.122-.242-.254-.473-.386-.706a4.472 4.472 0 00-.397-.56 7.076 7.076 0 00-.49-.525l.553-.478z" fill="#ff0"/></g><g><path d="M-483.658 153.723l2.645.204c-.031.176-1.514 4.917-1.72 5.02-1.526.769-1.541 3.278-1.19 5.09.333 1.714.384 4.564.926 5.156.684.747 1.124 2.85 1.124 2.85l-2.05.068s-.718-3.338-1.587-4.682c-.673-1.04-.224-2.147-.33-3.732-.109-1.603.018-3.542 1.124-4.681.65-.671 1.058-5.293 1.058-5.293z" fill="green" stroke="#387e4b" stroke-width=".066"/><circle fill="#ff0" stroke="#8a5700" stroke-width=".1" filter="url(#d)"/><path d="M-482.08 154.347s.884 1.137 1.101 1.877c.315 1.075.319 2.305.21 3.447-.086.9-.427 2.038-.672 2.567-.244.53-.529.73-.529.73s-.435-.325-.546-.605c-.315-.79-.17-1.775-.2-2.667-.038-1.205-.162-2.443.037-3.617.106-.621.6-1.732.6-1.732zM-480.02 152.29s1.148-.87 1.89-1.077c1.08-.3 2.31-.29 3.45-.165.9.097 2.032.453 2.558.704.527.25.724.538.724.538s-.332.43-.612.538c-.794.305-1.778.149-2.67.166-1.206.024-2.445.131-3.616-.083-.62-.113-1.724-.62-1.724-.62zM-480.493 153.753s1.333-.546 2.104-.556c1.12-.014 2.306.313 3.376.725.845.325 1.848.96 2.293 1.337.444.377.56.706.56.706s-.43.33-.729.363c-.845.09-1.756-.313-2.623-.525-1.171-.286-2.396-.5-3.473-1.007-.57-.269-1.508-1.043-1.508-1.043z" fill="#f0f" stroke="#000" stroke-width=".047"/><path d="M-481.103 154.05s1.418.248 2.077.65c.955.585 1.784 1.494 2.47 2.412.542.726 1.054 1.797 1.228 2.353.175.556.099.896.099.896s-.54.051-.811-.08c-.764-.375-1.32-1.2-1.94-1.842-.839-.867-1.762-1.7-2.403-2.704-.34-.53-.72-1.685-.72-1.685zM-483.78 152.64s-1.03 1.004-1.742 1.302c-1.033.433-2.255.574-3.402.592-.905.015-2.073-.197-2.626-.38-.553-.184-.784-.445-.784-.445s.275-.469.54-.61c.75-.401 1.745-.368 2.629-.496 1.193-.173 2.41-.433 3.598-.366.63.035 1.788.402 1.788.402z" fill="#f0f" stroke="#000" stroke-width=".047"/><path d="M-490.505 158.574s.443-1.37.934-1.966c.711-.864 1.727-1.56 2.732-2.11.793-.436 1.925-.793 2.5-.889.576-.095.902.027.902.027s-.025.543-.193.792c-.477.705-1.373 1.14-2.094 1.665-.975.71-1.93 1.508-3.012 2.003-.573.262-1.77.478-1.77.478zM-480.152 151.554s-.024-1.44.247-2.162c.393-1.049 1.128-2.035 1.901-2.883.61-.669 1.565-1.373 2.078-1.65.513-.277.861-.266.861-.266s.153.521.074.811c-.222.82-.929 1.523-1.441 2.254-.693.987-1.337 2.05-2.2 2.87-.458.434-1.52 1.026-1.52 1.026zM-481.72 150.42s-.904-1.122-1.134-1.859c-.333-1.069-.359-2.299-.27-3.442.07-.902.391-2.045.626-2.579.235-.533.516-.739.516-.739s.44.318.557.596c.329.784.202 1.771.247 2.663.06 1.204.205 2.44.026 3.617-.094.623-.568 1.742-.568 1.742zM-483.73 151.427s-1.427.193-2.176.008c-1.087-.268-2.153-.883-3.085-1.551-.735-.527-1.547-1.394-1.882-1.87-.335-.478-.365-.825-.365-.825s.5-.212.797-.168c.841.125 1.62.744 2.407 1.168 1.061.572 2.193 1.087 3.108 1.85.484.403 1.196 1.388 1.196 1.388zM-482.775 150.615s-1.398-.347-2.026-.795c-.913-.65-1.677-1.614-2.297-2.578-.49-.762-.924-1.866-1.06-2.433-.136-.567-.036-.9-.036-.9s.543-.014.804.137c.735.426 1.232 1.289 1.806 1.972.776.923 1.639 1.82 2.208 2.865.302.554.6 1.732.6 1.732z" fill="#f0f" stroke="#000" stroke-width=".047"/><g><path d="M-388.216 153.266l2.645.203c-.03.176-1.513 4.918-1.719 5.021-1.527.768-1.542 3.278-1.19 5.09.332 1.714.383 4.564.925 5.156.684.747 1.125 2.85 1.125 2.85l-2.05.068s-.719-3.339-1.588-4.682c-.673-1.04-.224-2.147-.33-3.732-.108-1.603.019-3.543 1.124-4.682.65-.67 1.058-5.292 1.058-5.292z" fill="green" stroke="#387e4b" stroke-width=".066" transform="matrix(-.8584 0 0 1.26174 -729.968 -43.873)"/><g transform="matrix(-.8584 0 0 1.26174 -811.895 -44.45)"><circle fill="#ff0" stroke="#8a5700" stroke-width=".1" filter="url(#e)"/><path d="M-482.08 154.347s.884 1.137 1.101 1.877c.315 1.075.319 2.305.21 3.447-.086.9-.427 2.038-.672 2.567-.244.53-.529.73-.529.73s-.435-.325-.546-.605c-.315-.79-.17-1.775-.2-2.667-.038-1.205-.162-2.443.037-3.617.106-.621.6-1.732.6-1.732zM-480.02 152.29s1.148-.87 1.89-1.077c1.08-.3 2.31-.29 3.45-.165.9.097 2.032.453 2.558.704.527.25.724.538.724.538s-.332.43-.612.538c-.794.305-1.778.149-2.67.166-1.206.024-2.445.131-3.616-.083-.62-.113-1.724-.62-1.724-.62zM-480.493 153.753s1.333-.546 2.104-.556c1.12-.014 2.306.313 3.376.725.845.325 1.848.96 2.293 1.337.444.377.56.706.56.706s-.43.33-.729.363c-.845.09-1.756-.313-2.623-.525-1.171-.286-2.396-.5-3.473-1.007-.57-.269-1.508-1.043-1.508-1.043z" fill="#f0f" stroke="#000" stroke-width=".047"/><path d="M-481.103 154.05s1.418.248 2.077.65c.955.585 1.784 1.494 2.47 2.412.542.726 1.054 1.797 1.228 2.353.175.556.099.896.099.896s-.54.051-.811-.08c-.764-.375-1.32-1.2-1.94-1.842-.839-.867-1.762-1.7-2.403-2.704-.34-.53-.72-1.685-.72-1.685zM-483.78 152.64s-1.03 1.004-1.742 1.302c-1.033.433-2.255.574-3.402.592-.905.015-2.073-.197-2.626-.38-.553-.184-.784-.445-.784-.445s.275-.469.54-.61c.75-.401 1.745-.368 2.629-.496 1.193-.173 2.41-.433 3.598-.366.63.035 1.788.402 1.788.402z" fill="#f0f" stroke="#000" stroke-width=".047"/><path d="M-490.505 158.574s.443-1.37.934-1.966c.711-.864 1.727-1.56 2.732-2.11.793-.436 1.925-.793 2.5-.889.576-.095.902.027.902.027s-.025.543-.193.792c-.477.705-1.373 1.14-2.094 1.665-.975.71-1.93 1.508-3.012 2.003-.573.262-1.77.478-1.77.478zM-480.152 151.554s-.024-1.44.247-2.162c.393-1.049 1.128-2.035 1.901-2.883.61-.669 1.565-1.373 2.078-1.65.513-.277.861-.266.861-.266s.153.521.074.811c-.222.82-.929 1.523-1.441 2.254-.693.987-1.337 2.05-2.2 2.87-.458.434-1.52 1.026-1.52 1.026zM-481.72 150.42s-.904-1.122-1.134-1.859c-.333-1.069-.359-2.299-.27-3.442.07-.902.391-2.045.626-2.579.235-.533.516-.739.516-.739s.44.318.557.596c.329.784.202 1.771.247 2.663.06 1.204.205 2.44.026 3.617-.094.623-.568 1.742-.568 1.742zM-483.73 151.427s-1.427.193-2.176.008c-1.087-.268-2.153-.883-3.085-1.551-.735-.527-1.547-1.394-1.882-1.87-.335-.478-.365-.825-.365-.825s.5-.212.797-.168c.841.125 1.62.744 2.407 1.168 1.061.572 2.193 1.087 3.108 1.85.484.403 1.196 1.388 1.196 1.388zM-482.775 150.615s-1.398-.347-2.026-.795c-.913-.65-1.677-1.614-2.297-2.578-.49-.762-.924-1.866-1.06-2.433-.136-.567-.036-.9-.036-.9s.543-.014.804.137c.735.426 1.232 1.289 1.806 1.972.776.923 1.639 1.82 2.208 2.865.302.554.6 1.732.6 1.732z" fill="#f0f" stroke="#000" stroke-width=".047"/></g></g><g><path d="M-303.766 153.25l2.645.203c-.031.176-1.514 4.917-1.72 5.02-1.526.768-1.541 3.278-1.19 5.09.333 1.714.383 4.564.926 5.156.684.747 1.124 2.85 1.124 2.85l-2.05.068s-.718-3.338-1.587-4.682c-.673-1.04-.224-2.147-.33-3.732-.109-1.603.018-3.542 1.123-4.682.651-.67 1.059-5.292 1.059-5.292z" fill="green" stroke="#387e4b" stroke-width=".066" transform="matrix(1.57163 0 0 1.32883 170.619 -56.454)"/><g transform="matrix(1.57163 0 0 1.32883 453.342 -57.084)"><circle fill="#ff0" stroke="#8a5700" stroke-width=".1" filter="url(#f)"/><path d="M-482.08 154.347s.884 1.137 1.101 1.877c.315 1.075.319 2.305.21 3.447-.086.9-.427 2.038-.672 2.567-.244.53-.529.73-.529.73s-.435-.325-.546-.605c-.315-.79-.17-1.775-.2-2.667-.038-1.205-.162-2.443.037-3.617.106-.621.6-1.732.6-1.732zM-480.02 152.29s1.148-.87 1.89-1.077c1.08-.3 2.31-.29 3.45-.165.9.097 2.032.453 2.558.704.527.25.724.538.724.538s-.332.43-.612.538c-.794.305-1.778.149-2.67.166-1.206.024-2.445.131-3.616-.083-.62-.113-1.724-.62-1.724-.62zM-480.493 153.753s1.333-.546 2.104-.556c1.12-.014 2.306.313 3.376.725.845.325 1.848.96 2.293 1.337.444.377.56.706.56.706s-.43.33-.729.363c-.845.09-1.756-.313-2.623-.525-1.171-.286-2.396-.5-3.473-1.007-.57-.269-1.508-1.043-1.508-1.043z" fill="#f0f" stroke="#000" stroke-width=".047"/><path d="M-481.103 154.05s1.418.248 2.077.65c.955.585 1.784 1.494 2.47 2.412.542.726 1.054 1.797 1.228 2.353.175.556.099.896.099.896s-.54.051-.811-.08c-.764-.375-1.32-1.2-1.94-1.842-.839-.867-1.762-1.7-2.403-2.704-.34-.53-.72-1.685-.72-1.685zM-483.78 152.64s-1.03 1.004-1.742 1.302c-1.033.433-2.255.574-3.402.592-.905.015-2.073-.197-2.626-.38-.553-.184-.784-.445-.784-.445s.275-.469.54-.61c.75-.401 1.745-.368 2.629-.496 1.193-.173 2.41-.433 3.598-.366.63.035 1.788.402 1.788.402z" fill="#f0f" stroke="#000" stroke-width=".047"/><path d="M-490.505 158.574s.443-1.37.934-1.966c.711-.864 1.727-1.56 2.732-2.11.793-.436 1.925-.793 2.5-.889.576-.095.902.027.902.027s-.025.543-.193.792c-.477.705-1.373 1.14-2.094 1.665-.975.71-1.93 1.508-3.012 2.003-.573.262-1.77.478-1.77.478zM-480.152 151.554s-.024-1.44.247-2.162c.393-1.049 1.128-2.035 1.901-2.883.61-.669 1.565-1.373 2.078-1.65.513-.277.861-.266.861-.266s.153.521.074.811c-.222.82-.929 1.523-1.441 2.254-.693.987-1.337 2.05-2.2 2.87-.458.434-1.52 1.026-1.52 1.026zM-481.72 150.42s-.904-1.122-1.134-1.859c-.333-1.069-.359-2.299-.27-3.442.07-.902.391-2.045.626-2.579.235-.533.516-.739.516-.739s.44.318.557.596c.329.784.202 1.771.247 2.663.06 1.204.205 2.44.026 3.617-.094.623-.568 1.742-.568 1.742zM-483.73 151.427s-1.427.193-2.176.008c-1.087-.268-2.153-.883-3.085-1.551-.735-.527-1.547-1.394-1.882-1.87-.335-.478-.365-.825-.365-.825s.5-.212.797-.168c.841.125 1.62.744 2.407 1.168 1.061.572 2.193 1.087 3.108 1.85.484.403 1.196 1.388 1.196 1.388zM-482.775 150.615s-1.398-.347-2.026-.795c-.913-.65-1.677-1.614-2.297-2.578-.49-.762-.924-1.866-1.06-2.433-.136-.567-.036-.9-.036-.9s.543-.014.804.137c.735.426 1.232 1.289 1.806 1.972.776.923 1.639 1.82 2.208 2.865.302.554.6 1.732.6 1.732z" fill="#f0f" stroke="#000" stroke-width=".047"/></g></g></g><g stroke="#007400" stroke-width=".123"><path d="M-406.308 148.42c-.234-.066-.512-.246-.62-.4-.292-.417-.04-.71 1.089-1.27.846-.42 1.122-.49 2.152-.539 1.558-.074 2.214.117 3.054.89l.66.608-.773.395c-.76.39-.81.396-2.955.416-1.201.011-2.374-.034-2.607-.1zM-400.616 145.747c-.519-.569-.978-1.35-1.9-3.23-1.377-2.812-1.582-3.324-1.582-3.953 0-.522.03-.531.592-.183 1.08.667 2.986 3.79 3.45 5.652.112.452.186 1.192.164 1.643l-.04.821zM-398.605 144.038c-.321-1.444-.248-8.092.098-8.873.123-.279.28-.471.349-.429.174.108.5 1.155.702 2.257.094.516.168 1.864.165 3.043-.005 2.282-.167 3.21-.77 4.394l-.318.626zM-397.35 145.294c.006-.246.52-2.003.727-2.48.125-.291.57-1.125.986-1.852.417-.728.947-1.68 1.177-2.117.524-.995.923-1.472 1.326-1.59.313-.092.314-.088.219.683-.225 1.82-1.515 4.925-2.549 6.133-.638.745-1.893 1.56-1.885 1.223zM-396.22 145.956c.629-1.084 1.08-1.566 2.72-2.902 2.085-1.698 2.367-1.894 2.73-1.894.435 0 .49.288.188.972-.437.989-1.276 2.114-2.243 3.009-1.204 1.115-1.871 1.443-2.933 1.443h-.825zM-393.75 150.216c-.383-.104-.866-.276-1.073-.383-.477-.247-1.65-1.54-1.509-1.664.229-.204 1.04-.394 1.68-.394.592 0 2.592.337 4.095.691.51.12 1.143.656 1.143.967 0 .437-1.652.994-2.905.979a6.95 6.95 0 01-1.43-.196zM-391.92 155.11c-.555-.258-1.145-.772-2.546-2.215-1.763-1.817-2.43-2.741-2.329-3.232.116-.564 1.891.169 3.204 1.322 1.148 1.009 1.867 2.058 2.257 3.29.183.58.333 1.08.333 1.113 0 .116-.207.053-.92-.278zM-398.53 160.154c-.442-1.432-.595-2.639-.596-4.706-.003-2.093.126-2.876.664-4.055l.352-.774.203.595c.157.46.216 1.424.259 4.232.06 3.996 0 4.875-.36 5.32l-.24.297zM-403.834 157.317c0-.967.93-3.346 1.923-4.92.596-.943 1.498-1.815 2.127-2.055.323-.123.616-.194.653-.157.152.152-.635 2.22-1.172 3.08-2.3 3.681-2.947 4.564-3.343 4.564-.13 0-.188-.158-.188-.512zM-406.271 152.495c-.222-.163-.225-.204-.032-.576.255-.494 1.505-1.652 2.261-2.095.78-.457 2.004-.859 2.619-.859.284 0 .81.127 1.168.28l.652.281-.343.407c-.528.628-1.48 1.248-2.499 1.63-.509.19-1.362.517-1.895.726-1.065.418-1.568.472-1.931.206z" fill="#7137c8" stroke-width=".03254334"/><path d="M-398.917 149.824c-.74-.623-1.013-2.083-.61-3.266.503-1.476 1.713-1.632 2.456-.316.648 1.148.273 3.224-.672 3.713-.532.275-.715.255-1.174-.131z" fill="#d4aa00" stroke-width=".03254334"/></g></svg>