<?xml version="1.0" encoding="UTF-8" standalone="no"?>
<svg
   xmlns:dc="http://purl.org/dc/elements/1.1/"
   xmlns:cc="http://creativecommons.org/ns#"
   xmlns:rdf="http://www.w3.org/1999/02/22-rdf-syntax-ns#"
   xmlns:svg="http://www.w3.org/2000/svg"
   xmlns="http://www.w3.org/2000/svg"
   width="16.0px"
   height="16.0px"
   viewBox="0 0 16.0 16.0"
   version="1.1"
   id="SVGRoot">
  <defs
     id="defs1618" />
  <metadata
     id="metadata1621">
    <rdf:RDF>
      <cc:Work
         rdf:about="">
        <dc:format>image/svg+xml</dc:format>
        <dc:type
           rdf:resource="http://purl.org/dc/dcmitype/StillImage" />
        <dc:title></dc:title>
      </cc:Work>
    </rdf:RDF>
  </metadata>
  <g
     id="layer1">
    <path
       style="fill:#002b00;stroke-width:40.3087"
       id="path1634"
       d="m -507.35168,167.77136 c 27.00031,-0.097 54.029,-0.90568 81.00454,0.45609 21.04412,1.64627 41.08864,7.88664 60.80349,15.01487 26.71177,11.05311 53.99228,20.69044 81.24831,30.30655 35.88459,11.43455 70.38509,26.40064 103.81526,43.65059 31.79333,17.34993 63.01289,35.72672 93.731098,54.91264 24.97202,16.5185 49.364338,33.88571 73.867939,51.08503 23.709775,17.25756 47.422691,34.79007 67.578646,56.24534 3.719467,3.95924 7.112748,8.21273 10.669122,12.31909 19.355577,23.29795 30.32423,51.52586 40.569235,79.63448 13.6694,41.30532 26.2334,82.96993 38.12383,124.82035 14.47191,51.37958 28.48438,102.93811 38.65824,155.37621 2.35591,12.14283 4.26091,24.36881 6.39137,36.55322 10.72261,71.43286 18.47305,143.25458 24.69257,215.20538 3.50618,37.2472 6.03613,74.564 7.19901,111.956 -1.0511,37.3468 -10.71941,73.6481 -20.9674,109.3444 -9.63885,29.154 -19.4443,58.2589 -30.06008,87.0741 -9.88032,26.9792 -19.20246,54.1716 -27.21302,81.7669 -5.88112,17.9315 -11.75343,35.8585 -19.24286,53.1916 -8.00019,16.3506 -18.1075,31.5832 -28.302621,46.6332 -6.188596,6.7106 -10.443097,14.4597 -14.524568,22.5028 -2.150656,4.0174 -4.20468,7.8948 -7.343612,11.2191 0,0 15.569003,-6.5752 15.569003,-6.5752 v 0 c 2.867089,-3.5665 4.990541,-7.5349 7.1198,-11.579 3.991638,-7.9389 8.563988,-15.3638 14.325638,-22.1901 10.06147,-15.1689 20.16441,-30.4386 28.07504,-46.8624 7.45726,-17.3334 13.1489,-35.3104 18.9085,-53.2659 7.77712,-27.5615 17.24135,-54.5955 26.97378,-81.5209 10.70404,-28.8047 20.49581,-57.9462 29.97693,-87.1734 9.97638,-35.933 19.4889,-72.3802 20.88294,-109.8464 -1.23714,-37.2726 -4.44855,-74.4164 -8.255,-111.5096 -6.7184,-71.84974 -15.55334,-143.49115 -25.37469,-214.97909 -2.08591,-12.22901 -3.93807,-24.5002 -6.25771,-36.68704 C 185.28831,732.29815 171.32553,680.62291 157.1769,629.0735 145.4911,587.07107 133.37239,545.17306 119.70726,503.76824 109.59951,475.39535 98.611825,446.89239 78.893399,423.60291 75.297484,419.47101 71.871849,415.18452 68.105655,411.20722 47.818996,389.78339 24.156838,372.09851 0.44679663,354.71317 -23.991719,337.37687 -48.353725,319.91464 -73.451709,303.53521 -104.37198,284.53999 -135.60375,266.05574 -167.4515,248.65127 c -33.43718,-17.27287 -67.90756,-32.30061 -103.73119,-43.96554 -27.16635,-9.5957 -54.36266,-19.25231 -80.88375,-30.52483 -19.79041,-7.45976 -40.03499,-13.53082 -61.23679,-15.30701 -26.81021,-1.44112 -53.68203,-0.21392 -80.52076,-0.91097 0,0 -13.52769,9.82844 -13.52769,9.82844 z" />
    <path
       style="fill:#002b00;stroke-width:40.3087"
       id="path1636"
       d="m -357.73337,-357.62381 c -11.79332,-9.74736 -25.4965,-16.95069 -39.34584,-23.29061 -18.8288,-9.13673 -39.33547,-12.35718 -59.96296,-14.10629 -15.45498,0.29462 -31.90654,-0.44451 -46.60951,5.28916 -2.11594,0.82515 -4.09096,1.97394 -6.13644,2.96091 -6.4567,4.13021 -13.35336,7.64234 -19.37012,12.39062 -1.90486,1.50327 -2.85668,3.9395 -4.02056,6.06874 -4.8198,8.8174 -6.38005,18.4813 -7.64636,28.29019 0.1415,14.21374 5.95475,27.11258 18.18614,34.98619 3.31527,2.13411 6.98026,3.66847 10.47039,5.50271 24.51882,9.40044 50.39045,14.3686 76.39058,17.36887 16.03555,1.73391 32.16938,1.53554 48.26955,1.46731 24.12783,-0.30813 47.95287,2.51229 71.808,5.68799 47.84305,7.34558 94.14511,21.8392 139.98554,36.97728 56.09389,18.83804 108.408736,46.69054 157.205252,79.96564 10.5286279,7.17963 20.7323074,14.82457 31.098461,22.23686 55.783395,41.620255 106.865317,89.370115 153.901877,140.6116765 8.73187,9.5124815 17.14742,19.3105465 25.72113,28.9658195 30.34374,35.629093 57.94058,73.431034 81.70703,113.758804 12.75992,21.65149 15.95605,28.72347 27.08215,50.58665 16.81269,33.14088 28.65631,68.41198 37.2877,104.47461 5.20615,21.68274 10.1346,43.43324 15.93624,64.96676 6.87154,23.80002 12.14122,47.97692 16.65477,72.32035 3.37902,15.71892 5.00315,31.70611 8.55799,47.378 0.41719,1.92486 0.83438,3.84972 1.25158,5.77458 0,0 14.67376,-7.88175 14.67376,-7.88175 v 0 c -0.4302,-1.92395 -0.86039,-3.8479 -1.29059,-5.77186 -3.64472,-15.58524 -5.33976,-31.52012 -8.86157,-47.14332 -4.73506,-24.33185 -10.08191,-48.52859 -16.73284,-72.41785 -5.80579,-21.50147 -10.52969,-43.27326 -16.09767,-64.83782 -9.06728,-36.00465 -21.1702,-71.28234 -38.4386,-104.24983 -13.983,-26.87776 -28.48667,-53.25162 -45.04573,-78.66497 C 253.35367,88.188672 246.04806,78.63479 228.25622,56.196529 220.33887,46.211524 212.18502,36.416338 204.14943,26.526242 195.50303,16.898174 187.00914,7.130939 178.21024,-2.3579624 155.21065,-27.161171 142.57749,-39.604762 117.90603,-63.189164 88.206935,-91.579683 57.836492,-119.32557 24.402108,-143.33536 14.050626,-150.78271 3.8698259,-158.47324 -6.6523382,-165.67743 -55.429423,-199.07355 -107.62834,-227.14301 -163.716,-246.17404 c -45.56129,-15.20562 -91.40317,-30.38444 -138.97024,-38.01839 -23.87677,-3.43795 -47.40418,-6.24484 -71.59329,-6.11847 -16.06636,-0.013 -32.16372,0.11204 -48.18397,-1.30566 -25.92321,-2.69224 -51.79108,-7.24211 -76.1661,-16.78392 -3.38056,-1.77987 -6.92239,-3.28237 -10.14168,-5.33963 -11.79044,-7.53457 -17.35663,-19.89573 -17.22236,-33.59132 0.99729,-7.20489 2.02672,-14.21535 4.82143,-20.99769 0.92757,-2.25107 1.91268,-4.49611 3.17585,-6.57748 1.22186,-2.0133 6.48924,-4.93766 4.24401,-5.64849 -3.1436,-0.99524 -5.98662,2.76609 -8.97994,4.14913 2.00644,-1.06425 3.93172,-2.2981 6.0193,-3.19276 14.51323,-6.21985 31.05019,-5.53265 46.46392,-5.99484 20.45602,1.70488 40.85566,4.66677 59.55202,13.70613 13.63682,6.24667 27.27352,13.27994 38.61497,23.23646 0,0 14.34871,-8.97284 14.34871,-8.97284 z" />
    <path
       style="fill:#002b00;stroke-width:40.3087"
       id="path1638"
       d="m 1282.9028,208.65049 c 27.084,7.17402 54.102,14.39462 81.6561,19.55494 12.1377,1.787 31.7788,3.81642 43.1804,-2.57195 6.3136,-3.53755 12.305,-7.62157 18.4576,-11.43236 6.6855,-7.75883 6.955,-18.016 7.3014,-27.75978 0.3029,-10.66318 0.1332,-21.26664 -2.2801,-31.68439 -6.0452,-15.95439 -17.9818,-24.52473 -32.0124,-33.14634 -14.93,-8.47718 -30.6899,-15.55819 -47.3656,-19.84225 -11.7776,-3.025734 -18.3732,-3.629919 -30.4949,-5.378722 -30.7699,-3.667434 -61.7802,-3.918021 -92.7214,-4.099598 -21.7032,0.156939 -43.6082,-1.143422 -65.0657,3.004435 -16.5997,3.208815 -26.236,6.814455 -42.5298,11.975845 -43.2496,16.98268 -83.5341,41.35666 -121.09002,68.58512 -19.72768,14.30278 -33.15759,25.9419 -51.73235,41.3684 -31.0543,27.20752 -60.8673,56.53733 -84.10195,90.88759 -4.04262,5.97663 -7.62689,12.2508 -11.44034,18.3762 -30.05998,50.99857 -47.35021,108.04591 -63.0377,164.74765 -14.81551,63.47934 -27.45316,127.44335 -41.36798,191.12599 -13.43327,56.20849 -27.26466,112.45176 -45.26134,167.41144 -3.09896,9.46386 -6.50048,18.82595 -9.75072,28.23893 -22.96552,58.13787 -40.55539,118.08819 -58.07361,178.01976 -2.78065,10.2892 -5.58349,20.5725 -8.34196,30.8677 -5.87635,21.9317 -8.38208,30.5704 -13.01406,52.363 -4.25576,20.0226 -7.20342,40.113 -9.68262,60.413 -4.05077,31.4353 -0.46778,62.9804 2.11227,94.3583 1.69511,20.2553 2.8358,40.5502 3.35225,60.8686 0.66629,17.8669 -2.93313,35.5171 -5.18815,53.1641 -2.2381,21.9363 -2.59217,44.0061 -2.9892,66.0355 -0.17201,13.3449 -0.37431,26.6905 -0.35114,40.0369 0.17871,9.8989 0.99165,19.8714 2.50064,29.6636 1.12141,7.5522 2.73571,15.0456 5.05684,22.3222 1.8651,5.8303 3.10557,11.8053 5.29818,17.5312 2.56326,5.4261 7.17843,10.7808 12.89611,13.1101 1.04408,0.4253 2.21791,0.4061 3.32687,0.6092 9.17805,-3.0853 2.05457,-0.3937 19.25929,-12.2872 0,0 -15.49065,6.6694 -15.49065,6.6694 v 0 c 13.17655,-6.3532 15.94803,-8.6606 9.97479,-4.1891 -0.98391,0.024 -2.01037,0.3589 -2.95174,0.072 -4.94421,-1.5083 -10.20538,-7.5688 -12.25092,-12.1927 -2.1358,-5.7072 -3.36743,-11.6579 -5.27179,-17.4392 -2.26262,-7.1964 -3.92403,-14.5747 -5.02929,-22.0372 -1.43591,-9.7293 -2.34929,-19.6018 -2.40052,-29.4363 -0.0231,-13.268 -0.21668,-26.5361 -0.0442,-39.8041 0.27811,-21.9946 0.67162,-44.0353 3.15711,-65.913 2.31538,-17.7355 5.81318,-35.4914 5.18651,-53.4505 -0.60332,-20.2664 -2.16552,-40.4789 -3.92668,-60.6751 -2.7025,-31.2388 -5.99456,-62.6567 -2.17496,-93.9689 1.84595,-16.1444 2.19793,-21.0179 4.99036,-37.5316 6.02497,-35.6299 15.49848,-70.5083 25.01222,-105.3307 9.16287,-31.2055 18.10214,-62.47204 28.23127,-93.38312 8.82458,-26.92997 10.58597,-31.2582 20.23142,-57.67893 3.28939,-9.01025 6.59764,-18.01361 9.89645,-27.02041 8.98728,-26.50535 10.96305,-31.47733 19.02983,-58.89009 13.30819,-45.22423 24.43615,-91.05562 35.7134,-136.81428 14.15289,-63.58934 26.22335,-127.63495 41.31314,-191.01276 15.90138,-56.79962 33.50437,-113.90449 64.11862,-164.77253 3.83079,-6.09147 7.44338,-12.32575 11.49238,-18.27441 23.1623,-34.02931 52.6416,-63.22863 83.48755,-90.23542 45.05289,-37.4856 91.85219,-74.33664 147.27859,-95.17577 16.2923,-5.18592 25.4267,-8.63987 41.9871,-11.89607 21.3883,-4.20549 43.1844,-2.98157 64.831,-3.10975 30.8956,0.17726 61.8692,0.40461 92.6049,3.9163 12.2081,1.74623 18.3442,2.2783 30.1918,5.28894 16.5429,4.2038 32.1906,11.15814 46.9744,19.60315 12.9986,8.13306 25.5733,17.21746 30.9527,32.25154 2.2208,10.31201 2.413,20.80167 2.0323,31.32418 -0.4149,9.43759 -0.7849,19.33381 -7.8794,26.41573 3.3875,-1.68158 6.9108,-3.11347 10.1623,-5.04474 1.7162,-1.01933 -3.6316,1.68148 -5.5313,2.29415 -2.3012,0.74217 -4.6579,1.32905 -7.0373,1.75934 -10.1516,1.83585 -20.4408,1.29636 -30.5748,-0.38454 -27.4047,-4.90382 -54.3532,-11.72194 -80.9662,-19.90644 0,0 -13.8253,9.53612 -13.8253,9.53612 z" />
    <path
       style="fill:#002b00;stroke-width:40.3087"
       id="path1640"
       d="m 410.82251,779.93657 c 1.49999,-13.68108 7.25368,-26.40533 13.44702,-38.52001 13.44125,-24.03989 27.68465,-47.60259 41.95707,-71.15395 18.58344,-30.30112 36.90291,-60.70363 53.4894,-92.1491 22.37666,-45.46844 40.78557,-92.74742 60.38978,-139.44596 3.32633,-7.61809 6.67297,-15.22735 9.97899,-22.85427 7.44895,-17.18458 11.87276,-28.09321 19.86107,-45.04617 11.9875,-25.44017 24.73585,-50.56652 37.22505,-75.76263 25.41052,-52.62183 53.04949,-104.0922 82.76276,-154.39789 17.53765,-28.36324 34.39271,-57.347822 56.28576,-82.674384 4.48884,-5.192825 9.32763,-10.072527 13.99144,-15.10879 31.56928,-34.3583823 71.05533,-59.139602 110.21721,-83.773654 16.89236,-9.932517 33.16678,-20.903104 50.36475,-30.320336 0.12972,-0.07103 0.20445,0.353632 0.33717,0.288382 16.41855,-8.669154 8.23569,-4.566419 24.53452,-12.336239 24.7682,-12.333088 51.4506,-18.636239 78.5178,-23.387849 39.6656,-5.51789 79.8361,-5.53344 119.8046,-5.92283 17.1209,-0.12934 34.242,-0.0427 51.3628,0.0311 9.183,0.0396 16.9222,-0.22445 26.0927,1.02854 5.2894,0.72272 10.4866,2.00818 15.7299,3.01227 32.777,7.89446 63.6875,21.49544 95.578,32.108642 23.0043,6.722553 46.6071,10.73589 70.2449,14.406526 23.3509,3.469103 46.9073,5.211925 70.4682,6.432836 10.0394,0.283616 20.1246,1.065071 30.1585,0.346537 6.3583,-0.829129 12.5162,-2.486268 18.5807,-4.513248 0,0 13.2075,-10.288489 13.2075,-10.288489 v 0 c -5.9507,2.152413 -12.0068,3.818302 -18.272,4.79976 -10.0603,1.04833 -20.2362,0.08294 -30.327,0.05071 -23.6331,-0.939618 -47.2648,-2.537872 -70.6702,-6.069838 -23.5508,-3.736034 -47.0829,-7.720057 -70.0669,-14.212953 -32.0735,-10.408823 -63.286,-23.395463 -95.917,-32.107213 -5.2244,-1.09561 -10.3951,-2.48937 -15.6732,-3.28682 -9.6742,-1.46163 -16.5318,-1.13486 -26.2068,-1.10035 -17.3137,0.0618 -34.6268,0.23418 -51.94,0.37006 -39.8378,0.41889 -79.8702,0.10843 -119.4425,5.34024 -27.0901,4.66513 -53.8816,10.63862 -78.68245,22.968213 -35.37293,16.693176 -68.71529,37.263764 -101.91914,57.85089 -39.23904,24.748354 -78.75223,49.729085 -110.32595,84.251493 -4.68326,5.083662 -9.53846,10.014151 -14.04979,15.250986 -21.78505,25.288459 -38.4147,54.240608 -55.67972,82.651138 -29.45919,50.38454 -56.99424,101.8588 -82.4678,154.37939 -12.59954,25.26662 -25.50081,50.45497 -37.56957,75.98084 -7.23794,15.30851 -13.13182,29.51446 -19.83358,45.05651 -3.28386,7.61559 -6.58818,15.22234 -9.88227,22.83352 -19.46886,46.8253 -38.18605,94.06365 -60.80999,139.48285 -16.82126,31.46277 -35.3545,61.88512 -54.01321,92.28647 -14.31398,23.67217 -28.68782,47.30588 -42.25714,71.41701 -6.30536,12.40955 -11.95918,25.33671 -13.82859,39.26237 0,0 15.24721,-7.45427 15.24721,-7.45427 z" />
    <path
       style="fill:#002b00;stroke-width:40.3087"
       id="path1642"
       d="m 1198.7478,-360.74223 c 23.7537,0.29542 47.4008,-1.15268 70.9338,-4.31829 21.4186,-2.74911 32.1371,-5.72799 50.2853,-18.91761 1.3364,-0.97128 1.9136,-2.69368 2.8704,-4.04053 1.3288,-3.09144 3.0956,-6.48193 3.2557,-9.94697 0.3442,-7.448 -2.5083,-16.50409 -6.2351,-22.85697 -1.6181,-2.75827 -3.7906,-5.15139 -5.6858,-7.72709 -2.8566,-2.49614 -5.5149,-5.23934 -8.5699,-7.48842 -22.0916,-16.26408 -52.4572,-23.04406 -78.669,-29.38108 -34.6698,-7.16953 -70.0292,-10.03108 -105.3688,-8.55935 -36.3347,2.40885 -71.2532,13.68375 -105.894,24.15625 -35.52189,11.86985 -70.4074,25.81543 -103.45868,43.51638 -8.49382,4.54895 -16.79127,9.45544 -25.1869,14.18316 -38.29034,21.57437 -75.11866,45.85792 -109.64853,73.0743 -19.55789,15.41549 -24.71872,20.56389 -43.04755,37.01329 -27.03599,25.12497 -53.47498,51.32264 -74.94942,81.49673 -3.5558,4.99632 -6.75833,10.23486 -10.1375,15.35229 -12.366,19.98138 -23.00316,41.07702 -30.97098,63.20658 -5.19872,14.43875 -7.15799,22.428645 -11.32027,37.226389 -8.36708,32.589836 -14.07324,65.746861 -22.41008,98.345081 -3.81079,18.171165 -13.40891,33.652196 -24.98253,47.815595 -9.87735,11.847619 -19.50269,23.868455 -29.08498,35.959437 -9.32532,11.842238 -17.67067,24.392148 -26.35666,36.695268 -3.41,3.53736 -6.20824,8.08277 -10.15594,11.1025 -1.53222,1.17205 -6.64747,3.91693 -4.96224,2.9781 18.0788,-10.07158 5.40862,-3.33195 1.75365,-1.42562 -14.06781,7.82418 -28.53194,14.88725 -42.72583,22.48374 -22.66283,11.72714 -44.85965,24.35974 -66.93821,37.14807 -11.34175,6.75124 -20.91505,15.84732 -30.52232,24.77834 -1.09011,0.89123 -4.53128,3.30035 -3.27035,2.6737 3.66712,-1.82245 7.1988,-3.94064 10.55134,-6.29215 1.49225,-1.04668 -3.26612,1.62242 -4.93585,2.35339 -5.83484,2.55437 -11.86563,4.70046 -17.74658,7.15199 0,0 -13.01951,10.27496 -13.01951,10.27496 v 0 c 15.14619,-6.42265 31.42945,-11.1409 43.92326,-22.51788 9.47125,-8.82104 18.98137,-17.71463 30.23791,-24.27321 -1.71246,0.96124 -6.87275,3.80294 -5.13738,2.88371 14.78684,-7.83268 29.13216,-16.47635 44.11624,-23.92868 14.1285,-7.59913 28.58415,-14.54414 42.56984,-22.39573 10.77943,-5.45823 22.23108,-10.5988 31.57633,-18.32176 3.85645,-3.18699 6.71316,-7.59807 9.97725,-11.32336 8.52707,-12.30587 16.8432,-24.76665 26.16322,-36.501999 9.63453,-12.099196 19.37087,-24.094624 29.22807,-36.010217 11.35812,-14.364384 20.62297,-30.048998 24.25308,-48.2619771 7.8767,-32.5714869 13.53013,-65.6093119 21.92432,-98.0571909 4.33598,-15.220526 6.04272,-22.302496 11.49465,-37.129276 8.09277,-22.00866 18.73236,-43.0009 31.09049,-62.90702 3.38963,-5.08445 6.62142,-10.27774 10.16889,-15.25335 21.34229,-29.93423 47.52716,-55.98486 74.36109,-80.93975 6.86363,-6.14958 13.59654,-12.44827 20.59091,-18.44874 33.328,-28.5921 69.50859,-53.70313 106.84877,-76.73815 20.66988,-11.65824 26.69816,-15.5374 47.51294,-25.52622 26.01864,-12.48611 53.06666,-22.65714 80.35364,-31.97957 34.4592,-10.4973 69.235,-21.6237 105.3689,-24.25066 35.3082,-1.72636 70.6716,0.88876 105.332,8.04154 22.3845,5.37144 45.8475,10.72624 66.3087,21.71838 9.9406,5.34028 11.7066,7.61383 19.6777,14.61925 1.8073,2.48603 3.8824,4.79793 5.4221,7.45808 3.583,6.19053 6.1931,14.75753 5.5183,21.98812 -0.3291,3.5256 -2.0475,6.30319 -3.5738,9.35748 -5.1039,6.13918 -5.3219,5.4176 7.2661,-1.54318 1.6689,-0.92287 -3.4191,1.70788 -5.2086,2.36716 -8.6543,3.18841 -17.8871,4.36881 -26.9257,5.87656 -23.2441,3.30898 -46.6558,5.01297 -70.149,4.02207 0,0 -13.6869,9.94411 -13.6869,9.94411 z" />
    <path
       style="fill:#002b00;stroke-width:40.3087"
       id="path1648"
       d="m -5.821018,-170.74658 c -6.088479,-14.84756 -12.002489,-29.82255 -16.203073,-45.33712 -3.085015,-11.39429 -3.702938,-16.04216 -5.835918,-27.5853 -3.371034,-25.75654 -6.271463,-52.39289 -1.226914,-78.16633 1.395198,-7.1283 3.594883,-14.07529 5.392324,-21.11293 11.304545,-38.03467 27.9191418,-74.0945 48.815364,-107.74854 8.516364,-13.68496 17.18967,-21.52212 30.522204,-30.03069 1.83798,-1.17297 -7.684418,3.69504 -5.510778,3.52385 3.153807,-0.24839 5.804924,-2.51707 8.707385,-3.7756 9.129452,-3.6995 18.628005,-6.28842 28.10455,-8.90221 0,0 12.918682,-9.92022 12.918682,-9.92022 v 0 c -9.499473,2.54371 -19.016098,5.07278 -28.18432,8.68268 -15.284305,6.35296 -10.006692,3.7475 -31.277679,16.34101 -5.60024,3.31563 -10.905868,7.30641 -15.486792,11.94312 -6.664114,6.74526 -8.901538,10.71833 -14.376911,18.58526 -20.4701445,33.8381 -36.68048,69.99364 -48.067837,107.9169 -1.857874,7.13879 -4.12661,14.1831 -5.573621,21.41637 -5.194843,25.96782 -2.26225,52.80406 1.131158,78.76948 2.060878,10.9374 2.979677,16.9589 5.894174,27.75847 4.217917,15.62935 10.263391,30.65664 15.62526,45.90187 0,0 14.632742,-8.26007 14.632742,-8.26007 z" />
    <path
       style="fill:#002b00;stroke-width:40.3087"
       id="path1654"
       d="m 650.80136,-186.13107 c 5.55854,-20.1508 12.38929,-39.90899 18.91255,-59.75979 3.11128,-11.00002 7.84802,-21.4975 10.76323,-32.55818 1.55236,-5.88985 1.6342,-7.84194 2.49124,-13.95833 1.71336,-15.67854 1.60557,-31.48103 1.63843,-47.23122 0.57957,-23.11722 -7.25429,-38.43921 -17.88893,-58.2295 -11.21917,-22.60118 -26.19801,-32.49971 -47.59364,-44.48186 -29.62059,-15.57711 -61.91929,-24.02308 -94.31784,-31.49185 -27.32505,-6.21407 -55.06349,-9.92215 -83.08373,-9.37912 -19.08039,1.30292 -37.2986,7.33397 -54.29243,15.94313 -12.08861,6.12415 -28.89514,17.49336 -38.81459,23.8225 -14.34328,11.77749 -27.62769,25.04386 -37.91355,40.57481 -4.33068,6.53904 -6.18902,10.63814 -9.6732,17.48505 -3.53259,8.89517 -9.36522,18.90201 -6.7644,28.85391 0.45048,1.72375 1.27452,3.32756 1.91178,4.99133 8.58336,14.48614 25.13707,20.04565 40.6538,23.73986 12.3122,1.56188 29.43296,4.91542 41.69693,1.42042 1.86808,-0.53236 3.55248,-1.57238 5.32872,-2.35857 16.3843,-9.26594 25.58584,-15.05544 30.79534,-32.33942 1.15002,-4.38229 1.41105,-8.89823 1.59258,-13.40086 0,0 -15.08185,7.60089 -15.08185,7.60089 v 0 c -0.21026,4.36774 -0.50759,8.747 -1.72177,12.97588 -1.89536,5.78691 -4.35948,11.01403 -8.49074,15.59424 -1.20815,1.33944 -5.66424,4.02576 -3.87807,3.77413 3.57601,-0.50376 6.53644,-3.07268 9.80466,-4.60902 -1.68566,0.92305 -3.24127,2.13932 -5.05697,2.76916 -11.23743,3.89814 -30.07978,0.74711 -41.54749,-0.72723 -14.96221,-3.45375 -31.23981,-8.52028 -39.47974,-22.55818 -0.56682,-1.55373 -1.31629,-3.05253 -1.70045,-4.66118 -2.28139,-9.55315 3.60037,-19.27866 6.86592,-27.80479 3.48125,-6.80582 5.22101,-10.65989 9.56268,-17.15524 10.27401,-15.37041 23.53214,-28.47246 37.90326,-39.99699 -5.75821,-2.70482 -2.59883,-0.76847 11.51947,-8.07805 16.79506,-8.69543 34.83438,-14.8952 53.76716,-16.35695 28.03057,-0.70652 55.82144,2.72653 83.19567,8.81531 32.20699,7.37791 64.372,15.68091 93.72988,31.33974 21.03579,11.8403 35.84038,21.57472 47.02669,43.7554 10.5162,19.65387 18.02609,34.72125 17.27645,57.64151 -0.0602,15.69404 0.005,31.44404 -1.81709,47.05591 -2.46536,15.91561 -8.07985,30.87584 -13.09495,46.13378 -6.48372,20.10684 -13.38888,40.07879 -19.42991,60.32682 0,0 15.2049,-7.47745 15.2049,-7.47745 z" />
  </g>
</svg>
